<?xml version="1.0" encoding="UTF-8"?>
<svg id="Layer_2" data-name="Layer 2" xmlns="http://www.w3.org/2000/svg" viewBox="0 0 378.65 378.65">
  <defs>
    <style>
      .cls-1 {
        fill: #fff;
      }
    </style>
  </defs>
  <g id="Layer_1-2" data-name="Layer 1">
    <g>
      <path class="cls-1" d="M255.84,227.36c14.92,13.81,23.5,30.87,26.97,50.61,4.78,24.37,5.76,48.88,5.09,73.1-50.34,30.48-110.55,35.7-164.89,15.64.35-17.7.7-34.57-2.54-51.48-3.04-15.84-10.64-29.44-18.95-43.03-17.77-26.75-19.25-56.18-9.89-86.61,5.74-18.66,5.63-35.07,14.73-51.4-.93-13.57,3.61-43.16,10.81-45.77,4.55-1.64,16.32,13.99,22.37,21.71,17.8-6.73,45.28,1.18,47.04,17.84,1.04,9.86,6.89,16.15,14.16,22.36,1.3,9.07-3.62,20.57-11.63,25.49-9.14,5.61-20.79,5.06-21.22,12.01-.47,7.53,12.22,9.55,22.53,10.46,24.9,2.19,47.23,11.28,65.44,29.07ZM174.51,144.82c.84-5-1-9.56-5.08-11.61-3.78-1.9-8.22.34-9.97,3.75,3.23,5.42,8.52,8.29,15.04,7.86Z"/>
      <path class="cls-1" d="M99.75,310.86c2.08,6.4,3.6,12.76,3.85,19.44l1.08,28.39C.48,306.21-31.79,174.36,34.6,80.27,101.06-13.94,235.41-27.51,319.42,51.72c83.57,78.81,78.09,214.39-12.52,285.97-.02-17.96-.92-33.43-3.34-49.44,55.73-64.4,47.47-161.77-17.94-215.73S122.85,28.95,70.35,95.86c-52.16,66.48-39.93,163.79,29.4,215Z"/>
      <path class="cls-1" d="M172.05,106.04c-8.08-2.6-14.32-3.53-23.12-3.21,5.93-7.74,12.53-14.51,19.87-21.16.78-.25,2.54-.86,2.96-.41l1.96,2.1-1.67,22.69Z"/>
    </g>
  </g>
</svg>