<?xml version="1.0" encoding="UTF-8"?>
<svg id="Layer_1" data-name="Layer 1" xmlns="http://www.w3.org/2000/svg" viewBox="0 0 464 464">
  <defs>
    <style>
      .cls-1 {
        fill: #fff;
      }

      .cls-2 {
        fill: none;
        stroke: #000;
        stroke-miterlimit: 10;
        stroke-width: 23px;
      }
    </style>
  </defs>
  <g>
    <rect class="cls-1" x="159" y="159" width="146" height="146"/>
    <path d="M293.5,170.5v123h-123v-123h123M316.5,147.5h-169v169h169v-169h0Z"/>
  </g>
  <g>
    <line class="cls-2" x1="197.5" y1="60.5" x2="197.5" y2="156.5"/>
    <circle class="cls-2" cx="197.5" cy="34.5" r="23"/>
    <circle cx="197.5" cy="102.5" r="23"/>
    <line class="cls-2" x1="300.5" y1="98" x2="258.5" y2="98"/>
    <circle class="cls-2" cx="326.5" cy="98" r="23"/>
    <circle cx="258.5" cy="98" r="23"/>
    <line class="cls-2" x1="258.5" y1="98" x2="258.5" y2="152"/>
    <circle cx="258.5" cy="98" r="23"/>
  </g>
  <g>
    <line class="cls-2" x1="60.5" y1="266.5" x2="156.5" y2="266.5"/>
    <circle class="cls-2" cx="34.5" cy="266.5" r="23"/>
    <circle cx="102.5" cy="266.5" r="23"/>
    <line class="cls-2" x1="98" y1="163.5" x2="98" y2="205.5"/>
    <circle class="cls-2" cx="98" cy="137.5" r="23"/>
    <circle cx="98" cy="205.5" r="23"/>
    <line class="cls-2" x1="98" y1="205.5" x2="152" y2="205.5"/>
    <circle cx="98" cy="205.5" r="23"/>
  </g>
  <g>
    <line class="cls-2" x1="266.5" y1="403.5" x2="266.5" y2="307.5"/>
    <circle class="cls-2" cx="266.5" cy="429.5" r="23"/>
    <circle cx="266.5" cy="361.5" r="23"/>
    <line class="cls-2" x1="163.5" y1="366" x2="205.5" y2="366"/>
    <circle class="cls-2" cx="137.5" cy="366" r="23"/>
    <circle cx="205.5" cy="366" r="23"/>
    <line class="cls-2" x1="205.5" y1="366" x2="205.5" y2="312"/>
    <circle cx="205.5" cy="366" r="23"/>
  </g>
  <g>
    <line class="cls-2" x1="403.5" y1="197.5" x2="307.5" y2="197.5"/>
    <circle class="cls-2" cx="429.5" cy="197.5" r="23"/>
    <circle cx="361.5" cy="197.5" r="23"/>
    <line class="cls-2" x1="366" y1="300.5" x2="366" y2="258.5"/>
    <circle class="cls-2" cx="366" cy="326.5" r="23"/>
    <circle cx="366" cy="258.5" r="23"/>
    <line class="cls-2" x1="366" y1="258.5" x2="312" y2="258.5"/>
    <circle cx="366" cy="258.5" r="23"/>
  </g>
  <rect x="198.74" y="198.74" width="66.52" height="66.52"/>
</svg>